<?xml version="1.0" encoding="utf-8"?>
<!-- Generator: Adobe Illustrator 25.3.1, SVG Export Plug-In . SVG Version: 6.00 Build 0)  -->
<svg version="1.1" id="Layer_1" xmlns="http://www.w3.org/2000/svg" xmlns:xlink="http://www.w3.org/1999/xlink" x="0px" y="0px"
	 viewBox="0 0 414 210" style="enable-background:new 0 0 414 210;" xml:space="preserve">
<style type="text/css">
	.st0{fill:#FFFFFF;}
</style>
<rect y="165" width="414" height="15"/>
<g>
	<g>
		<path d="M340.1,179.1H129.4c-33.8,0-61.2-27.4-61.2-61.2V61.2C68.2,27.4,95.6,0,129.4,0h210.7c33.8,0,61.2,27.4,61.2,61.2v56.8
			C401.2,151.7,373.9,179.1,340.1,179.1z"/>
		<rect x="68.2" y="119.4" width="333" height="60.2"/>
	</g>
	<path class="st0" d="M301.6,191H252c-4.6,0-8.4-3.8-8.4-8.4v-10c0-4.6,3.8-8.4,8.4-8.4h49.6c4.6,0,8.4,3.8,8.4,8.4v10
		C310,187.2,306.2,191,301.6,191z"/>
</g>
<g>
	<rect x="141.8" y="39" class="st0" width="87" height="39"/>
	<rect x="240.8" y="39" class="st0" width="87" height="39"/>
</g>
<g>
	<circle cx="276.6" cy="181.8" r="28.4"/>
	<circle class="st0" cx="276.6" cy="181.8" r="12.1"/>
</g>
<rect x="42" y="127" width="17" height="50"/>
<path class="st0" d="M83.5,151.8V87.9h9.1v29.1h0.2l13.4-29.1h9.1l-12.5,25.6l14.8,38.3H108l-10.4-28.3l-4.9,9.2v19.1H83.5z"/>
<path class="st0" d="M147.4,106.3v45.5h-9.1v-4.4h-0.2c-1,1.4-2.1,2.6-3.5,3.5c-1.3,0.9-3.1,1.4-5.2,1.4c-1.1,0-2.3-0.2-3.4-0.6
	c-1.1-0.4-2.2-1-3-1.9c-0.9-0.9-1.6-2-2.2-3.5c-0.5-1.4-0.8-3.1-0.8-5.2v-34.9h9.1v31.5c0,1.7,0.4,3,1.2,3.9c0.8,1,1.9,1.4,3.3,1.4
	c1.7,0,2.9-0.5,3.6-1.6c0.7-1.1,1-2.6,1-4.7v-30.6H147.4z"/>
<path class="st0" d="M164.1,157.1c0.1,1.1,0.5,2.1,1.3,3c0.8,1,2,1.4,3.5,1.4c1.5,0,2.6-0.5,3.2-1.4c0.7-0.9,1-2.1,1-3.5v-9H173
	c-1,1.5-2.2,2.6-3.6,3.5c-1.4,0.8-3,1.2-4.9,1.2c-3.8,0-6.5-1.4-8-4.3c-0.5-1-0.9-2.3-1.2-3.8c-0.2-1.5-0.4-3.5-0.4-6v-17.3
	c0-3.3,0.1-5.7,0.3-7.3c0.4-3,1.8-5.2,4.2-6.7c1.1-0.8,2.8-1.2,5.1-1.2c1.1,0,2.1,0.1,2.9,0.4c0.8,0.2,1.5,0.6,2.2,1
	c0.7,0.4,1.3,0.9,1.8,1.5c0.5,0.6,1.1,1.2,1.7,1.8v-4.1h9.1v51c0,1.6-0.3,3.1-0.8,4.7c-0.5,1.6-1.3,3-2.5,4.3
	c-1.1,1.3-2.6,2.4-4.3,3.2c-1.7,0.8-3.8,1.2-6.2,1.2c-1.4,0-2.8-0.2-4.3-0.7c-1.5-0.4-2.9-1.2-4.1-2.3c-1.3-1-2.4-2.4-3.4-4.1
	c-0.9-1.7-1.5-3.9-1.8-6.6H164.1z M164.1,137.8c0,1.4,0.3,2.7,0.9,3.8c0.6,1.1,1.8,1.6,3.5,1.6c1.3,0,2.4-0.5,3.3-1.4
	c0.9-0.9,1.3-2.1,1.3-3.5v-17.7c0-1.7-0.4-3-1.3-4.1c-0.8-1-1.9-1.6-3.3-1.6c-1.6,0-2.7,0.6-3.4,1.7c-0.7,1.1-1.1,2.6-1.1,4.5V137.8
	z"/>
<path class="st0" d="M216.3,132.5h-18.1v6.2c0,1.4,0.4,2.5,1.2,3.3c0.8,0.8,1.9,1.2,3.3,1.2c1.7,0,2.9-0.5,3.5-1.5c0.6-1,0.9-2,1-3
	h9.1c0,4-1.2,7.2-3.7,9.7c-1.2,1.3-2.6,2.2-4.3,3c-1.7,0.7-3.6,1.1-5.7,1.1c-2.9,0-5.3-0.6-7.3-1.8c-2-1.2-3.5-2.8-4.6-4.8
	c-0.7-1.2-1.1-2.6-1.3-4.1c-0.2-1.6-0.4-3.3-0.4-5.1v-15c0-1.9,0.1-3.6,0.4-5.1c0.2-1.6,0.7-2.9,1.3-4.1c1.1-2,2.6-3.6,4.6-4.8
	c2-1.2,4.4-1.8,7.3-1.8c2.1,0,4,0.4,5.7,1.1c1.7,0.7,3.2,1.7,4.4,3c2.4,2.7,3.6,6.1,3.6,10.1V132.5z M198.2,125.3h9v-5.2
	c0-1.7-0.4-3-1.2-3.9c-0.8-0.9-1.9-1.3-3.3-1.3c-1.4,0-2.5,0.4-3.3,1.3c-0.8,0.9-1.2,2.2-1.2,3.9V125.3z"/>
<path class="st0" d="M222.5,87.9h9.1v51c0,1.7,0.3,2.9,0.9,3.5c0.6,0.6,1.8,1,3.5,1.2v8.6c-2.1,0-4-0.2-5.7-0.5
	c-1.7-0.3-3.1-1-4.3-1.9c-1.2-0.9-2.1-2.2-2.7-3.8c-0.6-1.6-0.9-3.8-0.9-6.5V87.9z"/>
<path class="st0" d="M256.3,119c-0.1-1.6-0.6-2.7-1.5-3.5c-0.9-0.8-2-1.2-3.2-1.2c-1.4,0-2.5,0.5-3.3,1.4c-0.8,0.9-1.2,2-1.2,3.2
	c0,0.8,0.2,1.7,0.6,2.5c0.4,0.8,1.5,1.5,3.2,2.2l5.4,2.2c3.4,1.3,5.8,3.1,7,5.4c1.3,2.3,1.9,4.8,1.9,7.4c0,1.9-0.3,3.7-1,5.3
	c-0.7,1.6-1.6,3.1-2.8,4.3c-1.2,1.3-2.6,2.2-4.3,3c-1.7,0.7-3.5,1.1-5.5,1.1c-3.7,0-6.8-1.2-9.3-3.5c-1.3-1.1-2.3-2.6-3-4.3
	c-0.8-1.7-1.2-3.7-1.3-6h8.6c0.2,1.3,0.6,2.4,1.3,3.5c0.7,1.1,1.9,1.6,3.6,1.6c1.3,0,2.5-0.4,3.5-1.3c1-0.9,1.6-2.1,1.6-3.6
	c0-1.3-0.3-2.3-1-3.2c-0.7-0.9-1.9-1.7-3.6-2.3l-4.4-1.6c-2.9-1.1-5.1-2.7-6.8-4.8c-1.6-2.1-2.5-4.7-2.5-7.8c0-1.9,0.4-3.7,1.1-5.3
	c0.7-1.6,1.7-3.1,3-4.3c1.2-1.2,2.6-2.1,4.2-2.7s3.3-0.9,5.2-0.9c1.9,0,3.6,0.3,5.2,1c1.6,0.7,2.9,1.6,4.1,2.8
	c1.1,1.2,2,2.6,2.7,4.3c0.7,1.6,1,3.4,1,5.2H256.3z"/>
<path class="st0" d="M281,138.7c0,1.4,0.4,2.5,1.2,3.3c0.8,0.8,1.9,1.2,3.3,1.2c1.7,0,2.9-0.5,3.5-1.5c0.6-1,0.9-2,1-3h9.1
	c0,4-1.2,7.2-3.7,9.7c-1.2,1.3-2.6,2.2-4.3,3c-1.7,0.7-3.6,1.1-5.7,1.1c-2.9,0-5.3-0.6-7.3-1.8c-2-1.2-3.5-2.8-4.6-4.8
	c-0.7-1.2-1.1-2.6-1.3-4.1c-0.2-1.6-0.4-3.3-0.4-5.1v-15c0-1.9,0.1-3.6,0.4-5.1c0.2-1.6,0.7-2.9,1.3-4.1c1.1-2,2.6-3.6,4.6-4.8
	c2-1.2,4.4-1.8,7.3-1.8c2.1,0,4,0.4,5.7,1.1c1.7,0.7,3.2,1.7,4.4,3c2.4,2.7,3.6,6.2,3.6,10.5h-9.1c0-1.9-0.4-3.2-1.2-4.1
	c-0.8-0.9-1.9-1.3-3.3-1.3c-1.4,0-2.5,0.4-3.3,1.3c-0.8,0.9-1.2,2.2-1.2,3.9V138.7z"/>
<path class="st0" d="M303.4,151.8V87.9h9.1v22.8h0.2c1-1.4,2.1-2.6,3.5-3.5c1.3-0.9,3.1-1.4,5.2-1.4c1.1,0,2.3,0.2,3.4,0.6
	c1.1,0.4,2.2,1,3,1.9c0.9,0.9,1.6,2,2.2,3.5c0.5,1.4,0.8,3.1,0.8,5.2v34.9h-9.1v-31.5c0-1.7-0.4-3-1.2-3.9c-0.8-1-1.9-1.4-3.3-1.4
	c-1.7,0-2.9,0.5-3.6,1.6c-0.7,1.1-1,2.6-1,4.7v30.6H303.4z"/>
<path class="st0" d="M338.3,97.1v-9.1h9.1v9.1H338.3z M338.3,151.8v-45.5h9.1v45.5H338.3z"/>
<path class="st0" d="M356.1,151.8v-38.3h-4.5v-7.2h4.5v-6.2c0-2.2,0.3-4.1,1-5.6c0.7-1.5,1.6-2.8,2.7-3.8c1.1-1,2.3-1.7,3.7-2.2
	c1.4-0.4,2.9-0.6,4.4-0.6h4.2v8.6H368c-1.8,0-2.7,1-2.7,3.1v6.6h6.8v7.2h-6.8v38.3H356.1z"/>
<path class="st0" d="M380,151.8v-38.3h-4.5v-7.2h4.5v-6.2c0-2.2,0.3-4.1,1-5.6c0.7-1.5,1.6-2.8,2.7-3.8c1.1-1,2.3-1.7,3.7-2.2
	c1.4-0.4,2.9-0.6,4.3-0.6h4.2v8.6h-4.1c-1.8,0-2.7,1-2.7,3.1v6.6h6.8v7.2h-6.8v38.3H380z"/>
</svg>
